<svg xmlns="http://www.w3.org/2000/svg" xmlns:xlink="http://www.w3.org/1999/xlink" width="300" height="204" viewBox="0 0 300 204">
  <defs>
    <clipPath id="clip-Web_1280_1">
      <rect width="300" height="204"/>
    </clipPath>
  </defs>
  <g id="Web_1280_1" data-name="Web 1280 – 1" clip-path="url(#clip-Web_1280_1)">
    <rect width="300" height="204" fill="#fff"/>
    <g id="Group_1" data-name="Group 1" transform="translate(117.097 29.124)">
      <path id="Path_1" data-name="Path 1" d="M451,41.827l-.258-6.413-24.562,12.6,5.878,4.432Z" transform="translate(-412.522 -35.414)" fill="#13a9c2"/>
      <path id="Path_2" data-name="Path 2" d="M470.438,80.179l18.553-10.469-.409-7.079L463.759,75.573Z" transform="translate(-438.88 -54.507)" fill="#13a9c2"/>
      <path id="Path_3" data-name="Path 3" d="M445.75,94.39l-8.65,6.023h0L414.97,115.827V103.153l30.7-18V77.385l-.21-.181L414.1,95.526a5.619,5.619,0,0,1-6.96,0L389.011,80.386V80.35l-2.181-1.785-6.123-5.114-.064.052-.23-.188v49.919h.115l26.609,22.238a5.635,5.635,0,0,0,6.96,0l31.515-22.062h.091Zm-39.379,8.632v12.771l-17.36-14.5V88.518Zm.765,34.319L389.011,122.2V109.42l18.125,15.145a5.635,5.635,0,0,0,6.96,0l23-16.126v11.793l-23,17.11A5.635,5.635,0,0,1,407.137,137.341Z" transform="translate(-380.413 -62.001)" fill="#13a9c2"/>
    </g>
    <text id="ENTERSOFT" transform="translate(20.669 162.235)" fill="#1a1818" font-size="50" font-family="SegoeUI, Segoe UI"><tspan x="0" y="0">ENTERSOFT</tspan></text>
  </g>
</svg>
